<svg width="453" height="264" viewBox="0 0 453 264" fill="none" xmlns="http://www.w3.org/2000/svg">
<path d="M69.7168 263.648C31.2451 263.395 0 231.99 0 193.642C0 160.317 22.9868 132.462 54.2788 125.379C53.77 122.58 53.5146 119.723 53.5146 116.82C53.5146 90.5674 74.8726 69.2095 101.125 69.2095C109.845 69.2095 118.203 71.5366 125.495 75.8975C145.476 49.4746 176.307 34 209.956 34C262.544 34 306.871 72.7383 314.736 123.784C351.134 126.236 380 156.632 380 193.642C380 231.864 348.904 263.266 310.682 263.643L69.7168 263.648ZM101.125 89.2095C85.9009 89.2095 73.5146 101.595 73.5146 116.82C73.5146 121.163 74.5005 125.327 76.4448 129.194C77.9717 132.231 77.8511 135.836 76.1245 138.765C74.398 141.693 71.3018 143.543 67.9048 143.678C41.0425 144.738 20 166.685 20 193.642C20 221.034 42.3325 243.467 69.7827 243.648L310.583 243.643C337.788 243.375 360 220.944 360 193.642C360 166.062 337.562 143.625 309.983 143.625C308.956 143.625 307.838 143.669 306.468 143.764C303.814 143.949 301.194 143.067 299.191 141.315C297.188 139.563 295.966 137.084 295.795 134.428C292.902 89.3281 255.197 54 209.956 54C179.616 54 152.097 69.5088 136.342 95.4858C134.747 98.1157 132.03 99.8652 128.976 100.23C125.923 100.59 122.87 99.5332 120.701 97.3521C115.479 92.1011 108.527 89.2095 101.125 89.2095Z" fill="white"/>
<path d="M161 122.348C161 151.737 185.009 175.806 214.572 176L399.735 175.996C429.105 175.707 453 151.641 453 122.348C453 93.9839 430.819 70.689 402.85 68.8097C396.806 29.6886 362.744 0 322.334 0C296.478 0 272.787 11.8596 257.433 32.1098C251.83 28.7677 245.407 26.9842 238.707 26.9842C218.534 26.9842 202.122 43.3527 202.122 63.4723C202.122 65.6974 202.318 67.8866 202.709 70.0319C178.664 75.4603 161 96.8084 161 122.348Z" fill="#4F4F4F"/>
</svg>
