                  <svg
                    width="24"
                    height="24"
                    viewBox="0 0 24 24"
                    fill="none"
                    xmlns="http://www.w3.org/2000/svg"
                  >
                    <path
                      d="M12.0062 18.3219C8.52362 18.3219 5.69037 15.4887 5.69037 12.0062C5.69037 8.52362 8.52362 5.69037 12.0062 5.69037C15.4887 5.69037 18.3219 8.52362 18.3219 12.0062C18.3219 15.4887 15.4887 18.3219 12.0062 18.3219ZM12.0062 6.95353C9.22012 6.95353 6.95353 9.22012 6.95353 12.0062C6.95353 14.7922 9.22012 17.0588 12.0062 17.0588C14.7922 17.0588 17.0588 14.7922 17.0588 12.0062C17.0588 9.22012 14.7922 6.95353 12.0062 6.95353Z"
                      fill="white"
                    />
                    <path
                      d="M12 4.67368C11.6512 4.67368 11.3684 4.39092 11.3684 4.0421V0.631579C11.3684 0.282761 11.6512 0 12 0C12.3488 0 12.6316 0.282761 12.6316 0.631579V4.0421C12.6316 4.39092 12.3488 4.67368 12 4.67368Z"
                      fill="white"
                    />
                    <path
                      d="M12 24C11.6512 24 11.3684 23.7172 11.3684 23.3684V19.9579C11.3684 19.6091 11.6512 19.3263 12 19.3263C12.3488 19.3263 12.6316 19.6091 12.6316 19.9579V23.3684C12.6316 23.7172 12.3488 24 12 24Z"
                      fill="white"
                    />
                    <path
                      d="M4.0421 12.6316H0.631579C0.282761 12.6316 0 12.3488 0 12C0 11.6512 0.282761 11.3684 0.631579 11.3684H4.0421C4.39092 11.3684 4.67368 11.6512 4.67368 12C4.67368 12.3488 4.39092 12.6316 4.0421 12.6316Z"
                      fill="white"
                    />
                    <path
                      d="M23.3684 12.6316H19.9579C19.6091 12.6316 19.3263 12.3488 19.3263 12C19.3263 11.6512 19.6091 11.3684 19.9579 11.3684H23.3684C23.7172 11.3684 24 11.6512 24 12C24 12.3488 23.7172 12.6316 23.3684 12.6316Z"
                      fill="white"
                    />
                    <path
                      d="M17.5921 7.03945C17.4305 7.03945 17.2688 6.97781 17.1455 6.85448C16.8989 6.60783 16.8989 6.20792 17.1455 5.96127L19.592 3.5147C19.8387 3.26805 20.2386 3.26805 20.4852 3.5147C20.7319 3.76135 20.7319 4.16127 20.4852 4.40791L18.0387 6.85448C17.9154 6.97781 17.7537 7.03945 17.5921 7.03945Z"
                      fill="white"
                    />
                    <path
                      d="M3.96128 20.6702C3.79966 20.6702 3.638 20.6086 3.51468 20.4853C3.26806 20.2386 3.26806 19.8387 3.51468 19.5921L5.96124 17.1455C6.20789 16.8988 6.60781 16.8988 6.85446 17.1455C7.10108 17.3921 7.10108 17.7921 6.85446 18.0387L4.40789 20.4853C4.28457 20.6086 4.12291 20.6702 3.96128 20.6702Z"
                      fill="white"
                    />
                    <path
                      d="M6.40785 7.03945C6.24622 7.03945 6.08457 6.97781 5.96124 6.85448L3.51468 4.40791C3.26806 4.16127 3.26806 3.76135 3.51468 3.5147C3.76132 3.26805 4.16124 3.26805 4.40789 3.5147L6.85446 5.96127C7.10108 6.20792 7.10108 6.60783 6.85446 6.85448C6.73113 6.97781 6.56948 7.03945 6.40785 7.03945Z"
                      fill="white"
                    />
                    <path
                      d="M20.0386 20.6702C19.877 20.6702 19.7154 20.6086 19.592 20.4853L17.1455 18.0387C16.8989 17.7921 16.8989 17.3921 17.1455 17.1455C17.3921 16.8988 17.792 16.8988 18.0387 17.1455L20.4852 19.5921C20.7319 19.8387 20.7319 20.2386 20.4852 20.4853C20.3619 20.6086 20.2003 20.6702 20.0386 20.6702Z"
                      fill="white"
                    />
                  </svg>