<svg width="42" height="42" viewBox="0 0 42 42" fill="none" xmlns="http://www.w3.org/2000/svg">
<circle cx="21" cy="21" r="21" fill="black" fillOpacity="0.1"/>
<path d="M32.7538 30.9612L27.9758 26.1832C29.1261 24.6518 29.7471 22.7878 29.745 20.8725C29.745 15.9802 25.7648 12 20.8725 12C15.9802 12 12 15.9802 12 20.8725C12 25.7648 15.9802 29.745 20.8725 29.745C22.7878 29.7471 24.6518 29.1261 26.1832 27.9758L30.9612 32.7538C31.2031 32.97 31.5185 33.0854 31.8428 33.0763C32.1671 33.0673 32.4756 32.9344 32.705 32.705C32.9344 32.4756 33.0673 32.1671 33.0763 31.8428C33.0854 31.5185 32.97 31.2031 32.7538 30.9612ZM14.535 20.8725C14.535 19.6191 14.9067 18.3938 15.6031 17.3516C16.2994 16.3094 17.2892 15.4971 18.4472 15.0174C19.6053 14.5377 20.8795 14.4122 22.1089 14.6568C23.3382 14.9013 24.4675 15.5049 25.3538 16.3912C26.2401 17.2775 26.8437 18.4068 27.0882 19.6361C27.3328 20.8655 27.2073 22.1397 26.7276 23.2978C26.2479 24.4558 25.4356 25.4456 24.3934 26.1419C23.3512 26.8383 22.1259 27.21 20.8725 27.21C19.1923 27.208 17.5815 26.5396 16.3934 25.3516C15.2054 24.1635 14.537 22.5527 14.535 20.8725Z" fill="white"/>
</svg>
