<svg width="16" height="16" viewBox="0 0 16 16" fill="none" xmlns="http://www.w3.org/2000/svg">
<g clip-path="url(#clip0)">
<path d="M7.64602 1.14601C7.69247 1.09945 7.74764 1.0625 7.80839 1.0373C7.86913 1.01209 7.93426 0.999115 8.00002 0.999115C8.06579 0.999115 8.13091 1.01209 8.19166 1.0373C8.2524 1.0625 8.30758 1.09945 8.35402 1.14601L9.85402 2.64601C9.90051 2.6925 9.93739 2.74769 9.96255 2.80843C9.98771 2.86916 10.0007 2.93426 10.0007 3.00001C10.0007 3.06575 9.98771 3.13085 9.96255 3.19159C9.93739 3.25233 9.90051 3.30752 9.85402 3.35401C9.80754 3.4005 9.75235 3.43737 9.69161 3.46253C9.63087 3.48769 9.56577 3.50064 9.50002 3.50064C9.43428 3.50064 9.36918 3.48769 9.30844 3.46253C9.2477 3.43737 9.19251 3.4005 9.14602 3.35401L8.50002 2.70701V4.50001C8.50002 4.63262 8.44735 4.75979 8.35358 4.85356C8.25981 4.94733 8.13263 5.00001 8.00002 5.00001C7.86742 5.00001 7.74024 4.94733 7.64647 4.85356C7.5527 4.75979 7.50002 4.63262 7.50002 4.50001V2.70701L6.85402 3.35401C6.80754 3.4005 6.75235 3.43737 6.69161 3.46253C6.63087 3.48769 6.56577 3.50064 6.50002 3.50064C6.43428 3.50064 6.36918 3.48769 6.30844 3.46253C6.2477 3.43737 6.19251 3.4005 6.14602 3.35401C6.09954 3.30752 6.06266 3.25233 6.0375 3.19159C6.01234 3.13085 5.99939 3.06575 5.99939 3.00001C5.99939 2.93426 6.01234 2.86916 6.0375 2.80843C6.06266 2.74769 6.09954 2.6925 6.14602 2.64601L7.64602 1.14601ZM2.34302 4.34301C2.43679 4.24927 2.56394 4.19662 2.69652 4.19662C2.82911 4.19662 2.95626 4.24927 3.05002 4.34301L4.46402 5.75701C4.5551 5.85131 4.6055 5.97761 4.60436 6.10871C4.60322 6.23981 4.55064 6.36521 4.45793 6.45792C4.36523 6.55062 4.23982 6.60321 4.10872 6.60435C3.97763 6.60549 3.85132 6.55509 3.75702 6.46401L2.34302 5.05001C2.24929 4.95624 2.19663 4.82909 2.19663 4.69651C2.19663 4.56393 2.24929 4.43677 2.34302 4.34301ZM13.657 4.34301C13.7508 4.43677 13.8034 4.56393 13.8034 4.69651C13.8034 4.82909 13.7508 4.95624 13.657 5.05001L12.243 6.46401C12.1969 6.51176 12.1417 6.54985 12.0807 6.57606C12.0197 6.60226 11.9541 6.61606 11.8877 6.61663C11.8213 6.61721 11.7555 6.60456 11.694 6.57942C11.6326 6.55428 11.5768 6.51715 11.5298 6.47021C11.4829 6.42326 11.4458 6.36743 11.4206 6.30599C11.3955 6.24454 11.3828 6.1787 11.3834 6.11231C11.384 6.04592 11.3978 5.98031 11.424 5.91931C11.4502 5.8583 11.4883 5.80313 11.536 5.75701L12.95 4.34301C13.0438 4.24927 13.1709 4.19662 13.3035 4.19662C13.4361 4.19662 13.5633 4.24927 13.657 4.34301V4.34301ZM8.00002 7.00001C8.52671 6.99985 9.04416 7.13835 9.50035 7.40159C9.95653 7.66482 10.3354 8.04352 10.5988 8.49961C10.8622 8.95569 11.0009 9.47309 11.0009 9.99978C11.001 10.5265 10.8624 11.0439 10.599 11.5H5.40002C5.13664 11.0438 4.99801 10.5263 4.9981 9.99953C4.99818 9.47275 5.13697 8.95529 5.4005 8.49918C5.66404 8.04306 6.04302 7.66438 6.49935 7.40121C6.95567 7.13804 7.47325 6.99967 8.00002 7.00001V7.00001ZM11.71 11.5C11.9552 10.8929 12.0476 10.2348 11.9791 9.5836C11.9105 8.9324 11.6832 8.30799 11.317 7.76517C10.9508 7.22236 10.4569 6.77774 9.87875 6.47036C9.30059 6.16298 8.65582 6.00224 8.00102 6.00224C7.34623 6.00224 6.70145 6.16298 6.12329 6.47036C5.54513 6.77774 5.05127 7.22236 4.68507 7.76517C4.31887 8.30799 4.09152 8.9324 4.02299 9.5836C3.95446 10.2348 4.04684 10.8929 4.29202 11.5H0.499023C0.366415 11.5 0.239238 11.5527 0.14547 11.6465C0.0517019 11.7402 -0.000976562 11.8674 -0.000976562 12C-0.000976562 12.1326 0.0517019 12.2598 0.14547 12.3536C0.239238 12.4473 0.366415 12.5 0.499023 12.5H15.499C15.6316 12.5 15.7588 12.4473 15.8526 12.3536C15.9463 12.2598 15.999 12.1326 15.999 12C15.999 11.8674 15.9463 11.7402 15.8526 11.6465C15.7588 11.5527 15.6316 11.5 15.499 11.5H11.709H11.71ZM2.34375e-05 10C2.34375e-05 9.8674 0.0527019 9.74022 0.14647 9.64645C0.240238 9.55269 0.367415 9.50001 0.500023 9.50001H2.50002C2.63263 9.50001 2.75981 9.55269 2.85358 9.64645C2.94734 9.74022 3.00002 9.8674 3.00002 10C3.00002 10.1326 2.94734 10.2598 2.85358 10.3536C2.75981 10.4473 2.63263 10.5 2.50002 10.5H0.500023C0.367415 10.5 0.240238 10.4473 0.14647 10.3536C0.0527019 10.2598 2.34375e-05 10.1326 2.34375e-05 10ZM13 10C13 9.8674 13.0527 9.74022 13.1465 9.64645C13.2402 9.55269 13.3674 9.50001 13.5 9.50001H15.5C15.6326 9.50001 15.7598 9.55269 15.8536 9.64645C15.9473 9.74022 16 9.8674 16 10C16 10.1326 15.9473 10.2598 15.8536 10.3536C15.7598 10.4473 15.6326 10.5 15.5 10.5H13.5C13.3674 10.5 13.2402 10.4473 13.1465 10.3536C13.0527 10.2598 13 10.1326 13 10Z" fill="black"/>
</g>
<defs>
<clipPath id="clip0">
<rect width="16" height="16" fill="white"/>
</clipPath>
</defs>
</svg>
