<svg width="16" height="16" viewBox="0 0 16 16" fill="none" xmlns="http://www.w3.org/2000/svg">
<path d="M7.64602 3.854C7.69247 3.90056 7.74764 3.93751 7.80839 3.96271C7.86913 3.98792 7.93426 4.00089 8.00002 4.00089C8.06579 4.00089 8.13091 3.98792 8.19166 3.96271C8.2524 3.93751 8.30758 3.90056 8.35402 3.854L9.85402 2.354C9.90051 2.30751 9.93739 2.25232 9.96255 2.19158C9.98771 2.13084 10.0007 2.06574 10.0007 2C10.0007 1.93426 9.98771 1.86916 9.96255 1.80842C9.93739 1.74768 9.90051 1.69249 9.85402 1.646C9.80754 1.59951 9.75235 1.56264 9.69161 1.53748C9.63087 1.51232 9.56577 1.49937 9.50002 1.49937C9.43428 1.49937 9.36918 1.51232 9.30844 1.53748C9.2477 1.56264 9.19251 1.59951 9.14602 1.646L8.50002 2.293V0.5C8.50002 0.367392 8.44735 0.240215 8.35358 0.146447C8.25981 0.0526784 8.13263 0 8.00002 0C7.86742 0 7.74024 0.0526784 7.64647 0.146447C7.5527 0.240215 7.50002 0.367392 7.50002 0.5V2.293L6.85402 1.646C6.80754 1.59951 6.75235 1.56264 6.69161 1.53748C6.63087 1.51232 6.56577 1.49937 6.50002 1.49937C6.43428 1.49937 6.36918 1.51232 6.30844 1.53748C6.2477 1.56264 6.19251 1.59951 6.14602 1.646C6.09954 1.69249 6.06266 1.74768 6.0375 1.80842C6.01234 1.86916 5.99939 1.93426 5.99939 2C5.99939 2.06574 6.01234 2.13084 6.0375 2.19158C6.06266 2.25232 6.09954 2.30751 6.14602 2.354L7.64602 3.854V3.854ZM2.34302 3.344C2.43679 3.25026 2.56394 3.19761 2.69652 3.19761C2.82911 3.19761 2.95626 3.25026 3.05002 3.344L4.46402 4.757C4.5551 4.8513 4.6055 4.9776 4.60436 5.1087C4.60322 5.2398 4.55064 5.36521 4.45793 5.45791C4.36523 5.55061 4.23982 5.6032 4.10872 5.60434C3.97763 5.60548 3.85132 5.55508 3.75702 5.464L2.34302 4.05C2.24929 3.95624 2.19663 3.82908 2.19663 3.6965C2.19663 3.56392 2.24929 3.43676 2.34302 3.343V3.344ZM13.657 3.344C13.7505 3.43772 13.8029 3.56466 13.8029 3.697C13.8029 3.82934 13.7505 3.95628 13.657 4.05L12.243 5.464C12.1969 5.51176 12.1417 5.54985 12.0807 5.57605C12.0197 5.60226 11.9541 5.61605 11.8877 5.61663C11.8213 5.6172 11.7555 5.60455 11.694 5.57941C11.6326 5.55427 11.5768 5.51714 11.5298 5.4702C11.4829 5.42325 11.4458 5.36743 11.4206 5.30598C11.3955 5.24453 11.3828 5.17869 11.3834 5.1123C11.384 5.04591 11.3978 4.9803 11.424 4.9193C11.4502 4.8583 11.4883 4.80312 11.536 4.757L12.95 3.343C13.0438 3.24926 13.1709 3.19661 13.3035 3.19661C13.4361 3.19661 13.5633 3.24926 13.657 3.343V3.344ZM8.00002 6C8.52671 5.99984 9.04416 6.13834 9.50035 6.40158C9.95653 6.66482 10.3354 7.04351 10.5988 7.4996C10.8622 7.95568 11.0009 8.47308 11.0009 8.99977C11.001 9.52646 10.8624 10.0439 10.599 10.5H5.40002C5.13664 10.0438 4.99801 9.52629 4.9981 8.99952C4.99818 8.47275 5.13697 7.95528 5.4005 7.49917C5.66404 7.04305 6.04302 6.66437 6.49935 6.4012C6.95567 6.13804 7.47325 5.99966 8.00002 6V6ZM11.71 10.5C11.9552 9.89284 12.0476 9.23478 11.9791 8.58359C11.9105 7.93239 11.6832 7.30798 11.317 6.76516C10.9508 6.22235 10.4569 5.77774 9.87875 5.47036C9.30059 5.16298 8.65582 5.00223 8.00102 5.00223C7.34623 5.00223 6.70145 5.16298 6.12329 5.47036C5.54513 5.77774 5.05127 6.22235 4.68507 6.76516C4.31887 7.30798 4.09152 7.93239 4.02299 8.58359C3.95446 9.23478 4.04684 9.89284 4.29202 10.5H0.499023C0.366415 10.5 0.239238 10.5527 0.14547 10.6464C0.0517019 10.7402 -0.000976562 10.8674 -0.000976562 11C-0.000976562 11.1326 0.0517019 11.2598 0.14547 11.3536C0.239238 11.4473 0.366415 11.5 0.499023 11.5H15.499C15.6316 11.5 15.7588 11.4473 15.8526 11.3536C15.9463 11.2598 15.999 11.1326 15.999 11C15.999 10.8674 15.9463 10.7402 15.8526 10.6464C15.7588 10.5527 15.6316 10.5 15.499 10.5H11.709H11.71ZM2.34375e-05 9C2.34375e-05 8.86739 0.0527019 8.74021 0.14647 8.64645C0.240238 8.55268 0.367415 8.5 0.500023 8.5H2.50002C2.63263 8.5 2.75981 8.55268 2.85358 8.64645C2.94734 8.74021 3.00002 8.86739 3.00002 9C3.00002 9.13261 2.94734 9.25979 2.85358 9.35355C2.75981 9.44732 2.63263 9.5 2.50002 9.5H0.500023C0.367415 9.5 0.240238 9.44732 0.14647 9.35355C0.0527019 9.25979 2.34375e-05 9.13261 2.34375e-05 9ZM13 9C13 8.86739 13.0527 8.74021 13.1465 8.64645C13.2402 8.55268 13.3674 8.5 13.5 8.5H15.5C15.6326 8.5 15.7598 8.55268 15.8536 8.64645C15.9473 8.74021 16 8.86739 16 9C16 9.13261 15.9473 9.25979 15.8536 9.35355C15.7598 9.44732 15.6326 9.5 15.5 9.5H13.5C13.3674 9.5 13.2402 9.44732 13.1465 9.35355C13.0527 9.25979 13 9.13261 13 9Z" fill="black"/>
</svg>
